<?xml version="1.0" encoding="iso-8859-1"?>
<svg fill='rgb(150, 150, 150)' opacity='0.3' version="1.1" id="Capa_1" xmlns="http://www.w3.org/2000/svg" xmlns:xlink="http://www.w3.org/1999/xlink" 
	 viewBox="0 0 100 169.5" xml:space="preserve">
	<polygon points="50,34.75 93.5,59.75 93.5,109.75 50,134.75 6.5,109.75 6.5,59.75"></polygon>
	<polygon points="0,-50 43.5,-25 43.5,25 0,50 -43.5,25 -43.5,-25"></polygon>
	<polygon points="100,-50 143.5,-25 143.5,25 100,50 56.5,25 56.5,-25"></polygon>
	<polygon points="0,119.5 43.5,144.5 43.5,194.5 0,219.5 -43.5,194.5 -43.5,144.5"></polygon>
	<polygon points="100,119.5 143.5,144.5 143.5,194.5 100,219.5 56.5,194.5 56.5,144.5"></polygon>
</svg>